<?xml version="1.0" encoding="UTF-8"?>
<svg id="Layer_1" data-name="Layer 1" xmlns="http://www.w3.org/2000/svg" viewBox="0 0 1021.88 963.37">
  <path d="M736.82,460.62c214.71,43.49,105.88-123.53,105.88-123.53,117.65-200.82-88.24-150-88.24-150-129.41-152.94-173.53,55.88-173.53,55.88-147.06,61.76-5.4,152.94-5.4,152.94,40.7,197.06,161.29,64.71,161.29,64.71Z" style="fill: #d1d161;"/>
  <path d="M959.74,604.31c92.81,69.61,94.12,291.18-82.35,314.71s-232.35-111.76-214.71-217.65c17.65-105.88,179.41-185.29,297.06-97.06Z" style="fill: #ffde94;"/>
  <path d="M364.18,236.66s167.65-102.94-8.82-208.82c-176.47-105.88-208.82,122.79-197.06,145.22s61.76,140.08,205.88,63.61Z" style="fill: #ffe5ed;"/>
  <path d="M16.11,334.66l420.03,102.48s-78.38,173.61-307.4,118.36C-62.82,509.27,16.11,334.66,16.11,334.66Z" style="fill: #ff7d59;"/>
  <path d="M381.34,716.1c-31.34,20.89,66.58-69.48,100-61.76,38.24,8.82,38.24,52.97-14.71,95.6-52.94,42.63,71.19-11.69,77.07,38.31s-32.95,39.62-81.48,36.68,66.18,23.53,54.41,67.65c-11.76,44.12-45.11,57.97-108.82-29.41-36.45-50,55.88,94.12-26.47,100-82.35,5.88-14.71-111.76-41.18-114.71-26.47-2.94-58.82,85.29-111.76,47.06-52.94-38.24,76.47-71.74,41.18-93.22-35.29-21.48-89.59-30.57-79.63-74.18,6.1-26.71,61.79-35.05,101.59,0,39.8,35.05-9.34-51.61,23.01-94.36,32.35-42.75,84.44,70.59,66.79,82.35Z" style="fill: #99b0ed;"/>
</svg>